Coordinates
version=1
nRows=24
nColumns=38
inDegrees=no

Units are S.I. units (second, meters, Newtons, ...)
If the header above contains a line with 'inDegrees', this indicates whether rotational values are in degrees (yes) or radians (no).

endheader
time	pelvis_tilt	pelvis_list	pelvis_rotation	pelvis_tx	pelvis_ty	pelvis_tz	hip_flexion_r	hip_adduction_r	hip_rotation_r	knee_angle_r	ankle_angle_r	subtalar_angle_r	mtp_angle_r	hip_flexion_l	hip_adduction_l	hip_rotation_l	knee_angle_l	ankle_angle_l	subtalar_angle_l	mtp_angle_l	lumbar_extension	lumbar_bending	lumbar_rotation	arm_flex_r	arm_add_r	arm_rot_r	elbow_flex_r	pro_sup_r	wrist_flex_r	wrist_dev_r	arm_flex_l	arm_add_l	arm_rot_l	elbow_flex_l	pro_sup_l	wrist_flex_l	wrist_dev_l
35	3.10314	1.48134	-1.49352	0.670526	0.29663	0.935198	-0.185005	-0.0494858	-0.372066	0	-0.0662096	0	0	-0.15022	-0.0804657	-0.254461	0	-0.0941968	0	0	-0.322319	0.00907347	0.0225698	0.063668	-0.290702	0.341647	0.483009	1.18676	0	0	0.109627	-0.248246	0.0291477	0.595989	1.51948	0	0
35.01	3.09989	1.4846	-1.48952	0.670899	0.297368	0.93522	-0.181635	-0.0487774	-0.373369	0	-0.066616	0	0	-0.14663	-0.0806962	-0.254763	0	-0.0954444	0	0	-0.315069	0.00748542	0.023474	0.0722551	-0.287933	0.352294	0.477388	1.18221	0	0	0.117617	-0.245405	0.0293566	0.593423	1.51248	0	0
35.02	3.0975	1.4881	-1.48657	0.671171	0.298053	0.935216	-0.178337	-0.0481236	-0.374388	0	-0.0668982	0	0	-0.142914	-0.0806424	-0.255603	0	-0.0963471	0	0	-0.30728	0.00594007	0.0242079	0.0803797	-0.285454	0.362097	0.472874	1.17999	0	0	0.124098	-0.242824	0.0304462	0.593704	1.50339	0	0
35.03	3.09857	1.49129	-1.48754	0.671417	0.29873	0.935189	-0.175621	-0.0476014	-0.375182	0	-0.0670139	0	0	-0.139833	-0.0802916	-0.256892	0	-0.0968779	0	0	-0.299706	0.00407887	0.0252623	0.0881442	-0.283088	0.371819	0.469841	1.18116	0	0	0.129663	-0.240717	0.0329732	0.596422	1.49277	0	0
35.04	3.10149	1.49364	-1.49014	0.671682	0.299496	0.935124	-0.173756	-0.0469951	-0.3767	0	-0.0670553	0	0	-0.137446	-0.0799332	-0.257364	0	-0.0976617	0	0	-0.293348	0.00224131	0.026102	0.0960923	-0.280715	0.381316	0.467521	1.18665	0	0	0.135171	-0.239103	0.0371201	0.601107	1.48205	0	0
35.05	3.10382	1.49501	-1.49193	0.671979	0.299938	0.935127	-0.173097	-0.0462354	-0.378598	0	-0.0671942	0	0	-0.136099	-0.0797415	-0.257035	0	-0.0984411	0	0	-0.28839	0.000623599	0.0266342	0.104105	-0.278619	0.38926	0.466224	1.19474	0	0	0.140518	-0.238174	0.0429568	0.606564	1.47211	0	0
35.06	3.10684	1.49522	-1.49438	0.672174	0.300398	0.935167	-0.173936	-0.0454628	-0.379989	0	-0.0672713	0	0	-0.136132	-0.0796504	-0.256535	0	-0.0987988	0	0	-0.284718	-0.000769656	0.0270213	0.11185	-0.276906	0.397586	0.467492	1.19115	0	0	0.147172	-0.234083	0.0324408	0.607944	1.51231	0	0
35.07	3.11448	1.49403	-1.50146	0.672383	0.300737	0.935256	-0.176545	-0.045176	-0.38127	0	-0.06686	0	0	-0.137876	-0.0792941	-0.255875	0	-0.0986723	0	0	-0.282812	-0.00232222	0.0273726	0.119404	-0.276106	0.409723	0.470139	1.19218	0	0	0.152519	-0.233592	0.039329	0.614605	1.50618	0	0
35.08	3.12172	1.49216	-1.50841	0.672553	0.301397	0.935236	-0.17983	-0.0450667	-0.382077	0	-0.0659938	0	0	-0.1404	-0.0790428	-0.255316	0	-0.0982574	0	0	-0.281795	-0.00369423	0.0281439	0.12651	-0.275566	0.422047	0.473143	1.19602	0	0	0.157953	-0.233295	0.0475499	0.621624	1.49883	0	0
35.09	3.12716	1.49022	-1.51396	0.672774	0.301772	0.935205	-0.1833	-0.0450525	-0.382175	0	-0.0647582	0	0	-0.14337	-0.0789864	-0.25492	0	-0.0973536	0	0	-0.280956	-0.00494525	0.0293877	0.133015	-0.275066	0.42978	0.478792	1.19989	0	0	0.163266	-0.233237	0.0571514	0.628676	1.49106	0	0
35.1	3.13079	1.48779	-1.51805	0.673017	0.302327	0.935098	-0.187068	-0.0450295	-0.38125	0	-0.0633879	0	0	-0.146837	-0.0792315	-0.254671	0	-0.0962513	0	0	-0.280855	-0.00618256	0.0309027	0.139206	-0.274448	0.433159	0.486178	1.20378	0	0	0.16853	-0.233648	0.0679193	0.636253	1.48366	0	0
35.11	3.13203	1.48445	-1.5202	0.67338	0.302701	0.935068	-0.191625	-0.0450581	-0.379254	0	-0.0622376	0	0	-0.151412	-0.079724	-0.254735	0	-0.0951171	0	0	-0.282127	-0.0072429	0.0328851	0.145232	-0.273868	0.436025	0.493503	1.20987	0	0	0.173962	-0.234144	0.0795221	0.643998	1.47608	0	0
35.12	3.13348	1.48085	-1.52223	0.673622	0.303174	0.935046	-0.19661	-0.0451946	-0.377934	0	-0.0608419	0	0	-0.156436	-0.0802502	-0.254447	0	-0.0937151	0	0	-0.283586	-0.00805566	0.0345484	0.150155	-0.273145	0.43803	0.500867	1.21849	0	0	0.178921	-0.234685	0.0910891	0.651274	1.46934	0	0
35.13	3.1287	1.47684	-1.518	0.67395	0.303836	0.935049	-0.201938	-0.0446069	-0.376914	0	-0.0594887	0	0	-0.16199	-0.0815347	-0.254105	0	-0.0922663	0	0	-0.285523	-0.00821433	0.0362214	0.154241	-0.272033	0.438431	0.508616	1.22914	0	0	0.183259	-0.235425	0.102497	0.658465	1.46426	0	0
35.14	3.12111	1.47253	-1.51103	0.674297	0.304245	0.935135	-0.207599	-0.0435742	-0.375536	0	-0.0580257	0	0	-0.168029	-0.0832258	-0.25372	0	-0.09083	0	0	-0.288022	-0.00805367	0.0379015	0.157878	-0.270979	0.436896	0.517492	1.23997	0	0	0.187	-0.236238	0.113358	0.666141	1.46101	0	0
35.15	3.11478	1.46804	-1.50543	0.674634	0.304832	0.935195	-0.213318	-0.0426012	-0.374113	0	-0.0566455	0	0	-0.174301	-0.0847711	-0.253658	0	-0.0893333	0	0	-0.290807	-0.00786837	0.0395752	0.161127	-0.26996	0.434877	0.526325	1.25073	0	0	0.190034	-0.236876	0.123607	0.674109	1.45944	0	0
35.16	3.11289	1.46409	-1.50439	0.67491	0.305416	0.935217	-0.218383	-0.0421837	-0.372721	0	-0.0554175	0	0	-0.180018	-0.0856037	-0.254118	0	-0.0878425	0	0	-0.293062	-0.00798436	0.0411711	0.163706	-0.26895	0.432391	0.535306	1.261	0	0	0.192268	-0.237218	0.13283	0.682257	1.45954	0	0
35.17	3.1151	1.46041	-1.50688	0.675109	0.305922	0.935282	-0.223029	-0.0421417	-0.371894	0	-0.0543028	0	0	-0.185088	-0.0858248	-0.254184	0	-0.0867893	0	0	-0.295442	-0.00827833	0.0419998	0.166243	-0.267748	0.429399	0.54426	1.26989	0	0	0.194047	-0.2375	0.14107	0.690597	1.46144	0	0
35.18	3.1193	1.4573	-1.51056	0.675129	0.306307	0.93538	-0.226989	-0.0421756	-0.372013	0	-0.0533021	0	0	-0.189119	-0.0857396	-0.253674	0	-0.0861664	0	0	-0.297632	-0.00853374	0.0417892	0.168676	-0.266645	0.426888	0.553243	1.27656	0	0	0.195186	-0.237806	0.148444	0.699067	1.46522	0	0
35.19	3.12231	1.45475	-1.51282	0.675191	0.306692	0.935476	-0.230319	-0.0419372	-0.372738	0	-0.052378	0	0	-0.192331	-0.0856727	-0.253099	0	-0.085856	0	0	-0.299264	-0.00870847	0.0411117	0.170913	-0.265428	0.425457	0.560837	1.28207	0	0	0.195536	-0.237934	0.154942	0.707771	1.46964	0	0
35.2	3.12428	1.45333	-1.51475	0.675305	0.307135	0.935544	-0.232403	-0.0416467	-0.373222	0	-0.0517122	0	0	-0.194502	-0.0855529	-0.253543	0	-0.0856735	0	0	-0.299479	-0.00908318	0.0408918	0.172531	-0.264126	0.42457	0.56831	1.28552	0	0	0.194849	-0.237843	0.16023	0.716355	1.4741	0	0
35.21	3.12483	1.45261	-1.51497	0.675375	0.307693	0.935576	-0.23361	-0.0410817	-0.374084	0	-0.0513392	0	0	-0.195651	-0.0856261	-0.253694	0	-0.0858645	0	0	-0.299073	-0.00929159	0.0400888	0.174038	-0.264243	0.431557	0.577712	1.26611	0	0	0.193229	-0.237929	0.164271	0.725271	1.48947	0	0
35.22	3.12499	1.45313	-1.51547	0.675576	0.308093	0.935616	-0.233403	-0.0407387	-0.374188	0	-0.0511067	0	0	-0.195635	-0.085571	-0.254809	0	-0.0861647	0	0	-0.297198	-0.00970418	0.0398278	0.175288	-0.263343	0.434319	0.584848	1.25941	0	0	0.191126	-0.23755	0.167963	0.732644	1.492	0	0
35.23	3.1275	1.45426	-1.51783	0.675723	0.308628	0.935606	-0.232597	-0.0407257	-0.374594	0	-0.0508532	0	0	-0.194802	-0.0852432	-0.255382	0	-0.0862385	0	0	-0.294582	-0.0103424	0.0389273	0.176435	-0.262243	0.437412	0.590754	1.25324	0	0	0.188643	-0.236948	0.171069	0.739147	1.4931	0	0
